
<svg version="1.1" id="Calque_1" xmlns="http://www.w3.org/2000/svg" xmlns:xlink="http://www.w3.org/1999/xlink" x="0px" y="0px"
	 width="16.5px" height="9.43435px" viewBox="-119.008 -67.84 331 188.687" enable-background="new -119.008 -67.84 331 188.687"
	 xml:space="preserve">

<linearGradient id="SVGID_1_" gradientUnits="userSpaceOnUse" x1="37.9929" y1="95.8496" x2="37.9929" y2="-90.8438" gradientTransform="matrix(1 0 0 -1 8.5 29.0059)">
	<stop  offset="0" style="stop-color:#A6A6A6"/>
	<stop  offset="1" style="stop-color:#000000"/>
</linearGradient>
<path fill="url(#SVGID_1_)" d="M-113.55,18.223c-0.685,0-1.225,0.528-1.314,1.283l-2.394,18.19l2.394,17.879
	c0.09,0.757,0.63,1.28,1.314,1.28c0.664,0,1.2-0.523,1.307-1.273l0,0v-0.003c0,0,0,0,0,0.003l2.838-17.886l-2.838-18.193
	C-112.347,18.75-112.89,18.223-113.55,18.223z M-100.081,8.284c-0.113-0.783-0.674-1.321-1.361-1.321
	c-0.695,0-1.27,0.556-1.366,1.321c0,0.007-3.219,29.412-3.219,29.412l3.219,28.762c0.093,0.771,0.668,1.328,1.366,1.328
	c0.685,0,1.245-0.544,1.358-1.321l3.663-28.769L-100.081,8.284z M-49.351-18.848c-1.321,0-2.411,1.082-2.473,2.456l-2.566,54.116
	l2.566,34.97c0.065,1.365,1.152,2.445,2.473,2.445c1.314,0,2.404-1.083,2.48-2.452v0.01l2.9-34.973l-2.9-54.116
	C-46.947-17.766-48.037-18.848-49.351-18.848z M-75.605-0.04c-1.015,0-1.844,0.812-1.927,1.892l-2.886,35.858l2.886,34.688
	c0.079,1.073,0.912,1.881,1.927,1.881c1.001,0,1.83-0.808,1.919-1.881l3.281-34.688l-3.281-35.865
	C-73.775,0.771-74.604-0.04-75.605-0.04z M-22.666,75.132c1.637,0,2.972-1.32,3.037-3.01l2.515-34.385l-2.511-72.044
	c-0.065-1.691-1.396-3.011-3.037-3.011c-1.651,0-2.986,1.324-3.038,3.017c0,0.003-2.232,72.039-2.232,72.039l2.232,34.396
	C-25.649,73.812-24.314,75.132-22.666,75.132z M31.964,75.297c2.253,0,4.114-1.857,4.155-4.142v0.028v-0.028l1.754-33.395
	l-1.754-83.207c-0.038-2.28-1.902-4.139-4.155-4.139c-2.26,0-4.124,1.855-4.158,4.143L26.24,37.73
	c0,0.055,1.565,33.446,1.565,33.446C27.84,73.439,29.708,75.297,31.964,75.297z M4.441,75.166c1.961,0,3.543-1.575,3.598-3.584
	v0.027l2.133-33.865L8.035-34.821c-0.055-2.007-1.638-3.577-3.598-3.577c-1.975,0-3.557,1.57-3.602,3.577l-1.896,72.572L0.84,71.603
	C0.884,73.591,2.466,75.166,4.441,75.166z M-62.528,74.85c1.166,0,2.108-0.936,2.197-2.163l3.093-34.977L-60.33,4.433
	c-0.086-1.228-1.028-2.154-2.197-2.154c-1.184,0-2.129,0.934-2.201,2.17l-2.725,33.261l2.725,34.973
	C-64.654,73.914-63.711,74.85-62.528,74.85z M-88.579,72.931c0.854,0,1.545-0.671,1.641-1.603l3.475-33.626l-3.471-34.899
	c-0.1-0.934-0.791-1.606-1.645-1.606c-0.863,0-1.551,0.676-1.641,1.606c0,0.003-3.058,34.899-3.058,34.899l3.058,33.619
	C-90.134,72.257-89.446,72.931-88.579,72.931z M18.148-36.029c-2.129,0-3.839,1.695-3.88,3.865l-1.733,69.918l1.733,33.643
	c0.041,2.14,1.747,3.835,3.88,3.835c2.129,0,3.824-1.688,3.876-3.859V71.4l1.943-33.643l-1.943-69.93
	C21.972-34.334,20.277-36.029,18.148-36.029z M-36.057,75.204c1.472,0,2.687-1.2,2.759-2.734l2.703-34.739l-2.703-66.489
	c-0.076-1.536-1.287-2.733-2.759-2.733c-1.486,0-2.696,1.2-2.762,2.733c0,0.003-2.394,66.489-2.394,66.489l2.397,34.753
	C-38.753,74.004-37.543,75.204-36.057,75.204z M-5.85,71.926v-0.021l2.325-34.161L-5.85-36.73c-0.055-1.849-1.514-3.3-3.316-3.3
	c-1.809,0-3.268,1.448-3.315,3.3l-2.064,74.467l2.067,34.182c0.048,1.834,1.506,3.281,3.312,3.281c1.806,0,3.254-1.447,3.316-3.288
	V71.926z M169.966-5.186c-5.521,0-10.787,1.118-15.582,3.128c-3.205-36.306-33.651-64.786-70.788-64.786
	c-9.088,0-17.944,1.788-25.767,4.815c-3.04,1.176-3.849,2.387-3.879,4.736V70.564c0.034,2.462,1.946,4.516,4.351,4.76
	c0.104,0.011,110.942,0.065,111.662,0.065c22.243,0,40.28-18.033,40.28-40.287C210.243,12.855,192.214-5.186,169.966-5.186z
	 M45.716-57.403c-2.419,0-4.406,1.986-4.44,4.427l-1.816,90.748l1.819,32.934c0.031,2.404,2.019,4.389,4.438,4.389
	c2.414,0,4.398-1.984,4.433-4.423v0.038l1.979-32.938l-1.979-90.755C50.115-55.417,48.13-57.403,45.716-57.403z M-84.731,100.997
	c-4.764-1.118-6.053-1.716-6.053-3.604c0-1.331,1.072-2.711,4.292-2.711c2.752,0,4.901,1.118,6.831,3.096l4.334-4.208
	c-2.834-2.96-6.267-4.722-10.944-4.722c-5.934,0-10.738,3.35-10.738,8.805c0,5.924,3.866,7.686,9.403,8.971
	c5.665,1.287,6.697,2.146,6.697,4.083c0,2.274-1.679,3.265-5.235,3.265c-2.879,0-5.582-0.984-7.691-3.439l-4.333,3.865
	c2.273,3.352,6.659,5.452,11.677,5.452c8.207,0,11.815-3.862,11.815-9.573C-74.676,103.749-79.959,102.118-84.731,100.997z
	 M-57.066,88.849c-8.2,0-13.05,6.353-13.05,15.498c0,9.15,4.85,15.5,13.05,15.5s13.057-6.35,13.057-15.5
	C-44.009,95.201-48.865,88.849-57.066,88.849z M-57.066,113.882c-4.85,0-6.872-4.165-6.872-9.527c0-5.37,2.022-9.535,6.872-9.535
	c4.856,0,6.872,4.165,6.872,9.535C-50.194,109.717-52.209,113.882-57.066,113.882z M-19.746,106.198
	c0,4.809-2.366,7.773-6.185,7.773c-3.821,0-6.14-3.047-6.14-7.855V89.317h-6.016v16.881c0,8.758,4.901,13.651,12.155,13.651
	c7.643,0,12.197-5.024,12.197-13.733V89.317h-6.012V106.198z M12.2,102.033c0,1.675,0.083,5.45,0.083,6.565
	c-0.386-0.774-1.373-2.274-2.102-3.391L-0.47,89.312h-5.755v30.065h5.93v-13.229c0-1.678-0.086-5.455-0.086-6.568
	c0.386,0.77,1.38,2.275,2.102,3.394l11.041,16.403h5.366V89.312H12.2V102.033z M35.259,89.317h-9.403v30.065h8.97
	c7.732,0,15.379-4.47,15.379-15.036C50.204,93.354,43.848,89.317,35.259,89.317z M34.825,113.541h-2.957V95.16h3.178
	c6.356,0,8.978,3.044,8.978,9.187C44.024,109.848,41.141,113.541,34.825,113.541z M68.798,94.813c2.704,0,4.424,1.206,5.497,3.268
	l5.582-2.577c-1.892-3.903-5.328-6.655-10.996-6.655c-7.85,0-13.353,6.353-13.353,15.498c0,9.491,5.279,15.5,13.14,15.5
	c5.455,0,9.06-2.531,11.12-6.783l-5.063-3.006c-1.589,2.662-3.182,3.824-5.885,3.824c-4.51,0-7.131-4.127-7.131-9.535
	C61.706,98.769,64.292,94.813,68.798,94.813z M91.094,89.317h-6.009v30.065h18.067v-5.935H91.094V89.317z M118.991,88.849
	c-8.206,0-13.056,6.353-13.056,15.498c0,9.15,4.85,15.5,13.056,15.5c8.197,0,13.054-6.35,13.054-15.5
	C132.045,95.201,127.189,88.849,118.991,88.849z M118.991,113.882c-4.859,0-6.872-4.165-6.872-9.527c0-5.37,2.013-9.535,6.872-9.535
	c4.847,0,6.862,4.165,6.862,9.535C125.854,109.717,123.838,113.882,118.991,113.882z M156.304,106.198
	c0,4.809-2.356,7.773-6.178,7.773c-3.827,0-6.143-3.047-6.143-7.855V89.317h-6.012v16.881c0,8.758,4.894,13.651,12.154,13.651
	c7.643,0,12.194-5.024,12.194-13.733V89.317h-6.017V106.198z M179.237,89.317h-9.401v30.065h8.971
	c7.735,0,15.375-4.47,15.375-15.036C194.181,93.354,187.828,89.317,179.237,89.317z M178.806,113.541h-2.962V95.16h3.183
	c6.35,0,8.971,3.044,8.971,9.187C187.997,109.848,185.117,113.541,178.806,113.541z"/>
</svg>
